# Blender 4.3.2
# www.blender.org
mtllib mini_tank.mtl
o Cube
v 1.150996 0.674063 -0.887703
v 1.271213 -0.887703 -0.887703
v 1.150996 0.674063 0.887703
v 1.271213 -0.887703 0.887703
v -1.150996 0.674063 -0.887703
v -1.271213 -0.887703 -0.887703
v -1.150996 0.674063 0.887703
v -1.271213 -0.887703 0.887703
v 1.271213 0.674063 -2.905788
v 1.271213 -0.887703 -3.884636
v -1.271213 0.674063 -2.905788
v -1.271213 -0.887703 -3.916894
v 1.271213 0.513998 3.612977
v 1.271213 -0.887703 3.964205
v -1.271213 0.513998 3.612977
v -1.271213 -0.887703 3.958530
v -1.271213 -0.887703 0.000000
v -1.271213 0.000000 0.887703
v -1.271213 0.000000 -0.887703
v -1.150996 0.674063 0.000000
v -1.271213 0.000000 -3.916894
v -1.271213 0.674063 -2.144421
v -1.271213 -0.887703 -2.144421
v -1.271213 0.000000 3.958530
v -1.271213 -0.887703 2.028088
v -1.271213 0.674063 2.028088
v -1.271213 0.000000 2.028088
v -1.271213 0.000000 -2.144421
v -1.271213 0.000000 0.000000
v -2.038436 -0.887703 0.000000
v -2.038436 -0.887703 0.887703
v -2.038436 0.000000 -0.887703
v -2.038436 -0.887703 -0.887703
v -2.038436 0.000000 -3.916894
v -2.038436 -0.887703 -3.916894
v -2.038436 -0.887703 -2.144421
v -2.038436 -0.887703 2.028088
v -2.038436 0.000000 0.887703
v -2.038436 -0.887703 3.958530
v -2.038436 0.000000 3.958530
v -2.038436 0.000000 2.028088
v -2.038436 0.000000 -2.144421
v -2.038436 0.000000 0.000000
v -1.271213 -1.536098 0.000000
v -1.271213 -1.536098 0.887703
v -1.271213 -1.536098 -0.887703
v -2.038436 -1.536098 -0.887703
v -1.271213 -1.536098 -1.823654
v -1.271213 -1.536098 1.698251
v -2.038436 -1.536098 0.887703
v -1.271213 -1.536098 -3.400171
v -1.271213 -1.536098 3.450877
v -2.038436 -1.536098 1.698251
v -2.038436 -1.536098 0.000000
v -2.038436 -1.536098 -1.823654
v -2.038436 -1.536098 -3.400171
v -2.038436 -1.536098 3.450877
v 1.271213 0.000000 -0.887703
v 1.271213 0.000000 0.887703
v 1.150996 0.674063 0.000000
v 1.271213 -0.887703 0.000000
v 1.271213 0.000000 -3.884636
v 1.271213 -0.887703 -2.402298
v 1.271213 0.674063 -2.402298
v 1.271213 0.000000 3.964205
v 1.271213 -0.887703 2.423116
v 1.271213 0.674063 2.423116
v 1.271213 0.000000 2.423116
v 1.271213 0.000000 -2.402298
v 1.271213 0.000000 0.000000
v 2.036577 0.000000 -0.887703
v 2.036577 -0.887703 -0.887703
v 2.036577 0.000000 0.887703
v 2.036577 -0.887703 0.887703
v 2.036577 -0.887703 0.000000
v 2.036577 0.000000 -3.884636
v 2.036577 -0.887703 -3.884636
v 2.036577 -0.887703 -2.402298
v 2.036577 0.000000 3.964205
v 2.036577 -0.887703 3.964205
v 2.036577 -0.887703 2.423116
v 2.036577 0.000000 2.423116
v 2.036577 0.000000 -2.402298
v 2.036577 0.000000 0.000000
v 1.271213 -1.548295 -2.402298
v 2.036577 -1.548295 -2.402298
v 1.271213 -1.548295 0.000000
v 1.271213 -1.548295 -0.887703
v 1.271213 -1.548295 -3.458761
v 1.271213 -1.548295 2.423116
v 1.271213 -1.548295 3.421925
v 1.271213 -1.548295 0.887703
v 2.036577 -1.548295 3.421925
v 2.036577 -1.548295 0.000000
v 2.036577 -1.548295 -0.887703
v 2.036577 -1.548295 -3.458761
v 2.036577 -1.548295 2.423116
v 2.036577 -1.548295 0.887703
v 1.280390 0.798587 0.987497
v -1.280390 0.798587 0.987497
v 1.280390 0.798587 0.000000
v -1.280390 0.798587 0.000000
v -1.280390 0.798587 -0.987497
v 1.280390 0.798587 -0.987497
v 1.280390 1.135764 1.287393
v -1.280390 1.135764 1.287393
v 1.280390 1.135764 0.000000
v -1.280390 1.135764 0.000000
v -1.280390 1.135764 -0.987497
v 1.280390 1.135764 -0.987497
v 1.106202 1.806143 1.153051
v -1.106202 1.806143 1.153051
v 1.106202 1.806143 0.000000
v -1.106202 1.806143 0.000000
v -1.106202 1.806143 -0.853155
v 1.106202 1.806143 -0.853155
v 0.000000 1.135764 -0.987497
v 0.000000 1.806143 -0.853155
v 0.640195 1.135764 -0.987497
v 0.553101 1.806143 -0.853155
v -0.640195 1.135764 -0.987497
v -0.553101 1.806143 -0.853155
v -0.640195 1.300439 -1.459628
v 0.000000 1.300439 -1.667474
v -0.553101 1.779215 -1.325286
v 0.000000 1.779215 -1.533132
v 0.640195 1.300439 -1.459628
v 0.553101 1.779215 -1.325286
v -0.320097 1.300439 -1.667474
v -0.276550 1.779215 -1.533132
v 0.000000 1.650741 -1.600303
v 0.320097 1.300439 -1.667474
v 0.276550 1.779215 -1.533132
v 0.596648 1.661436 -1.392457
v -0.596648 1.661436 -1.392457
v -0.298324 1.650741 -1.600303
v 0.298324 1.650741 -1.600303
v -0.320097 1.304461 -2.025959
v 0.000000 1.304461 -2.025959
v 0.000000 1.654763 -1.958788
v 0.320097 1.304461 -2.025959
v -0.298324 1.654763 -1.958788
v 0.298324 1.654763 -1.958788
v -0.213211 1.356665 -2.171996
v 0.000000 1.356665 -2.171996
v 0.000000 1.589995 -2.127254
v 0.213211 1.356665 -2.171996
v -0.198708 1.589995 -2.127254
v 0.198708 1.589995 -2.127254
v -0.213211 1.560336 -7.923867
v 0.000000 1.560336 -7.923867
v 0.000000 1.793667 -7.879127
v 0.213211 1.560336 -7.923867
v -0.198708 1.793667 -7.879127
v 0.198708 1.793667 -7.879127
v -0.298157 1.527527 -8.085589
v 0.000000 1.527527 -8.085589
v 0.000000 1.859058 -8.063962
v 0.298157 1.527527 -8.085589
v -0.277876 1.859058 -8.063962
v 0.277876 1.859058 -8.063962
v 0.000000 1.135764 1.499419
v 0.000000 1.806143 1.365077
v -0.553101 1.806143 1.259064
v 1.106202 1.806143 0.576525
v -1.106202 1.806143 -0.426578
v 0.829651 1.806143 -0.853155
v -1.106202 1.806143 0.576525
v 1.106202 1.806143 -0.426578
v -0.276550 1.806143 -0.853155
v 0.276550 1.806143 -0.853155
v -0.829651 1.806143 -0.853155
v 0.553101 1.806143 1.259064
vn -0.0000 -0.6254 -0.7803
vn -0.0000 -1.0000 -0.0000
vn -0.9845 0.1756 -0.0000
vn 0.9845 0.1756 -0.0000
vn 1.0000 -0.0000 -0.0000
vn 0.0084 0.5373 -0.8434
vn -1.0000 -0.0000 -0.0000
vn -0.0000 1.0000 -0.0000
vn -0.0018 0.2412 0.9705
vn -0.0047 0.9982 0.0600
vn -0.0000 -0.0000 1.0000
vn -0.9947 0.0887 -0.0524
vn -0.0000 -0.6232 -0.7820
vn -0.9949 0.0887 0.0476
vn -0.0000 -0.0000 -1.0000
vn -0.0000 -0.6165 0.7874
vn 0.9953 0.0888 -0.0390
vn 0.9953 0.0888 0.0395
vn -0.0000 -0.5418 -0.8405
vn -0.0000 -0.6345 0.7729
vn -0.0000 -0.6254 0.7803
vn 0.6934 -0.7205 -0.0000
vn -0.6934 -0.7205 -0.0000
vn 0.9679 0.2515 -0.0000
vn -0.0000 -0.7692 0.6390
vn -0.0000 0.1965 -0.9805
vn -0.9679 0.2515 -0.0000
vn 0.1709 0.2149 0.9616
vn 0.0080 0.9990 -0.0428
vn -0.9893 0.1409 0.0387
vn -0.0000 0.4633 -0.8862
vn -0.4965 0.5135 -0.6999
vn -0.0411 -0.9665 -0.2534
vn 0.9893 0.1409 0.0387
vn 0.0411 -0.9665 -0.2534
vn -0.0080 0.9990 -0.0428
vn -0.9981 0.0619 0.0007
vn -0.5437 0.2037 -0.8142
vn 0.4965 0.5135 -0.6999
vn 0.5437 0.2037 -0.8142
vn -0.0000 -0.9999 -0.0112
vn -0.0000 -0.9416 -0.3366
vn -0.0000 0.9999 0.0112
vn 0.9981 0.0619 0.0007
vn -0.0000 0.9994 0.0354
vn 0.8228 0.1559 -0.5465
vn -0.8228 0.1559 -0.5465
vn -0.0000 0.9334 -0.3588
vn -0.0000 -0.9800 0.1988
vn -0.0000 -0.9994 -0.0354
vn 0.9981 0.0616 0.0022
vn -0.9981 0.0616 0.0022
vn -0.0000 0.0651 -0.9979
vn 0.9036 0.0053 0.4284
vn -0.9036 0.0053 0.4284
vn -0.0000 0.9427 0.3335
vn -0.1709 0.2149 0.9616
vt 0.625000 0.500000
vt 0.875000 0.500000
vt 0.125000 0.750000
vt 0.375000 0.750000
vt 0.500000 0.125000
vt 0.625000 0.125000
vt 0.625000 0.250000
vt 0.500000 0.250000
vt 0.125000 0.500000
vt 0.375000 0.500000
vt 0.375000 0.625000
vt 0.125000 0.625000
vt 0.500000 0.625000
vt 0.625000 0.625000
vt 0.625000 0.750000
vt 0.500000 0.750000
vt 0.375000 0.250000
vt 0.500000 0.500000
vt 0.625000 1.000000
vt 0.500000 1.000000
vt 0.375000 1.000000
vt 0.875000 0.750000
vt 0.625000 0.000000
vt 0.500000 0.000000
vt 0.375000 0.125000
vt 0.375000 0.000000
vt 0.625000 0.562500
vt 0.750000 0.750000
vt 0.812500 0.500000
vt 0.750000 0.500000
vt 0.687500 0.500000
vt 0.656250 0.500000
vt 0.718750 0.500000
vt 0.781250 0.500000
vt 0.843750 0.500000
vt 0.875000 0.562500
vt 0.875000 0.625000
vt 0.875000 0.687500
vt 0.812500 0.750000
vt 0.687500 0.750000
vt 0.625000 0.687500
vt 0.625000 0.062500
vt 0.625000 0.187500
s 0
usemtl Material
f 1/1/1 5/2/1 103/2/1 104/1/1
f 8/3/2 4/4/2 66/4/2 14/4/2 16/3/2 25/3/2
f 29/5/3 20/6/3 5/7/3 19/8/3
f 6/9/2 2/10/2 61/11/2 4/4/2 8/3/2 17/12/2
f 70/13/4 60/14/4 3/15/4 59/16/4
f 74/4/5 81/4/5 97/4/5 98/4/5
f 12/17/6 21/8/6 11/7/6 9/1/6 62/18/6 10/10/6
f 28/8/7 22/7/7 11/7/7 21/8/7
f 2/10/2 6/9/2 23/9/2 12/9/2 10/10/2 63/10/2
f 5/2/8 1/1/8 64/1/8 9/1/8 11/2/8 22/2/8
f 14/4/9 65/16/9 13/15/9 15/19/9 24/20/9 16/21/9
f 3/15/10 7/22/10 26/22/10 15/22/10 13/15/10 67/15/10
f 68/16/5 67/15/5 13/15/5 65/16/5
f 16/21/11 24/20/11 40/20/11 39/21/11
f 26/23/7 27/24/7 24/24/7 15/23/7
f 7/23/12 18/24/12 27/24/12 26/23/12
f 28/8/8 21/8/8 34/8/8 42/8/8
f 23/9/5 6/9/5 46/9/5 48/9/5
f 35/17/13 12/17/13 51/17/13 56/17/13
f 19/8/14 5/7/14 22/7/14 28/8/14
f 30/25/7 33/17/7 47/17/7 54/25/7
f 18/24/8 29/5/8 43/5/8 38/24/8
f 18/24/3 7/23/3 20/6/3 29/5/3
f 41/24/7 37/26/7 39/26/7 40/24/7
f 38/24/7 31/26/7 37/26/7 41/24/7
f 36/17/7 42/8/7 34/8/7 35/17/7
f 33/17/7 32/8/7 42/8/7 36/17/7
f 30/25/7 43/5/7 32/8/7 33/17/7
f 31/26/7 38/24/7 43/5/7 30/25/7
f 8/3/5 25/3/5 49/3/5 45/3/5
f 19/8/8 28/8/8 42/8/8 32/8/8
f 37/26/7 31/26/7 50/26/7 53/26/7
f 21/8/15 12/17/15 35/17/15 34/8/15
f 33/17/7 36/17/7 55/17/7 47/17/7
f 24/24/8 27/24/8 41/24/8 40/24/8
f 29/5/8 19/8/8 32/8/8 43/5/8
f 27/24/8 18/24/8 38/24/8 41/24/8
f 51/9/2 48/9/2 55/9/2 56/9/2
f 48/9/2 46/9/2 47/9/2 55/9/2
f 45/3/2 49/3/2 53/3/2 50/3/2
f 46/9/2 44/12/2 54/12/2 47/9/2
f 49/3/2 52/3/2 57/3/2 53/3/2
f 44/12/2 45/3/2 50/3/2 54/12/2
f 12/9/5 23/9/5 48/9/5 51/9/5
f 36/17/7 35/17/7 56/17/7 55/17/7
f 31/26/7 30/25/7 54/25/7 50/26/7
f 6/9/5 17/12/5 44/12/5 46/9/5
f 25/3/5 16/3/5 52/3/5 49/3/5
f 39/26/7 37/26/7 53/26/7 57/26/7
f 16/21/16 39/21/16 57/21/16 52/21/16
f 17/12/5 8/3/5 45/3/5 44/12/5
f 62/18/8 69/18/8 83/18/8 76/18/8
f 61/11/7 2/10/7 88/10/7 87/11/7
f 59/16/17 3/15/17 67/15/17 68/16/17
f 64/1/5 69/18/5 62/18/5 9/1/5
f 1/1/18 58/18/18 69/18/18 64/1/18
f 66/4/7 4/4/7 92/4/7 90/4/7
f 58/18/8 70/13/8 84/13/8 71/18/8
f 65/16/11 14/4/11 80/4/11 79/16/11
f 58/18/4 1/1/4 60/14/4 70/13/4
f 83/18/5 78/10/5 77/10/5 76/18/5
f 81/4/5 82/16/5 79/16/5 80/4/5
f 74/4/5 73/16/5 82/16/5 81/4/5
f 71/18/5 72/10/5 78/10/5 83/18/5
f 75/11/5 84/13/5 73/16/5 74/4/5
f 72/10/5 71/18/5 84/13/5 75/11/5
f 69/18/8 58/18/8 71/18/8 83/18/8
f 78/10/5 72/10/5 95/10/5 86/10/5
f 75/11/5 74/4/5 98/4/5 94/11/5
f 68/16/8 65/16/8 79/16/8 82/16/8
f 14/4/7 66/4/7 90/4/7 91/4/7
f 10/10/15 62/18/15 76/18/15 77/10/15
f 70/13/8 59/16/8 73/16/8 84/13/8
f 59/16/8 68/16/8 82/16/8 73/16/8
f 91/4/2 90/4/2 97/4/2 93/4/2
f 85/10/2 89/10/2 96/10/2 86/10/2
f 88/10/2 85/10/2 86/10/2 95/10/2
f 90/4/2 92/4/2 98/4/2 97/4/2
f 87/11/2 88/10/2 95/10/2 94/11/2
f 92/4/2 87/11/2 94/11/2 98/4/2
f 72/10/5 75/11/5 94/11/5 95/10/5
f 4/4/7 61/11/7 87/11/7 92/4/7
f 77/10/5 78/10/5 86/10/5 96/10/5
f 10/10/19 77/10/19 96/10/19 89/10/19
f 2/10/7 63/10/7 85/10/7 88/10/7
f 80/4/20 14/4/20 91/4/20 93/4/20
f 81/4/5 80/4/5 93/4/5 97/4/5
f 63/10/7 10/10/7 89/10/7 85/10/7
f 102/6/7 100/23/7 106/23/7 108/6/7
f 7/22/21 3/15/21 99/15/21 100/22/21
f 60/14/22 1/1/22 104/1/22 101/14/22
f 20/6/23 7/23/23 100/23/23 102/6/23
f 5/7/23 20/6/23 102/6/23 103/7/23
f 3/15/22 60/14/22 101/14/22 99/15/22
f 107/14/24 110/1/24 116/1/24 169/27/24 113/14/24
f 103/7/7 102/6/7 108/6/7 109/7/7
f 100/22/25 99/15/25 105/15/25 162/28/25 106/22/25
f 101/14/5 104/1/5 110/1/5 107/14/5
f 104/1/15 103/2/15 109/2/15 121/29/15 117/30/15 119/31/15 110/1/15
f 99/15/5 101/14/5 107/14/5 105/15/5
f 116/1/8 167/32/8 120/31/8 171/33/8 118/30/8 170/34/8 122/29/8 172/35/8 115/2/8 166/36/8 114/37/8 168/38/8 112/22/8 164/39/8 163/28/8 173/40/8 111/15/8 165/41/8 113/14/8 169/27/8
f 121/29/26 109/2/26 115/2/26 172/35/26 122/29/26
f 105/15/24 107/14/24 113/14/24 165/41/24 111/15/24
f 108/6/27 106/23/27 112/23/27 168/42/27 114/6/27
f 109/7/27 108/6/27 114/6/27 166/43/27 115/7/27
f 162/28/28 105/15/28 111/15/28 173/40/28 163/28/28
f 118/30/29 171/33/29 120/31/29 128/31/29 133/33/29 126/30/29
f 110/1/26 119/31/26 120/31/26 167/32/26 116/1/26
f 121/29/30 122/29/30 125/29/30 135/29/30 123/29/30
f 137/33/31 131/30/31 126/30/31 133/33/31
f 136/34/32 135/29/32 125/29/32 130/34/32
f 117/30/33 121/29/33 123/29/33 129/34/33 124/30/33
f 120/31/34 119/31/34 127/31/34 134/31/34 128/31/34
f 119/31/35 117/30/35 124/30/35 132/33/35 127/31/35
f 122/29/36 170/34/36 118/30/36 126/30/36 130/34/36 125/29/36
f 131/30/31 136/34/31 130/34/31 126/30/31
f 129/34/37 136/34/37 142/34/37 138/34/37
f 129/34/38 123/29/38 135/29/38 136/34/38
f 134/31/39 137/33/39 133/33/39 128/31/39
f 127/31/40 132/33/40 137/33/40 134/31/40
f 124/30/41 129/34/41 138/34/41 139/30/41
f 139/30/42 138/34/42 144/34/42 145/30/42
f 141/33/42 139/30/42 145/30/42 147/33/42
f 136/34/43 131/30/43 140/30/43 142/34/43
f 131/30/43 137/33/43 143/33/43 140/30/43
f 132/33/41 124/30/41 139/30/41 141/33/41
f 137/33/44 132/33/44 141/33/44 143/33/44
f 148/34/45 146/30/45 152/30/45 154/34/45
f 146/30/45 149/33/45 155/33/45 152/30/45
f 143/33/46 141/33/46 147/33/46 149/33/46
f 138/34/47 142/34/47 148/34/47 144/34/47
f 140/30/48 143/33/48 149/33/48 146/30/48
f 142/34/48 140/30/48 146/30/48 148/34/48
f 151/30/49 150/34/49 156/34/49 157/30/49
f 153/33/49 151/30/49 157/30/49 159/33/49
f 147/33/50 145/30/50 151/30/50 153/33/50
f 145/30/50 144/34/50 150/34/50 151/30/50
f 149/33/51 147/33/51 153/33/51 155/33/51
f 144/34/52 148/34/52 154/34/52 150/34/52
f 157/30/53 156/34/53 160/34/53 158/30/53
f 159/33/53 157/30/53 158/30/53 161/33/53
f 155/33/54 153/33/54 159/33/54 161/33/54
f 150/34/55 154/34/55 160/34/55 156/34/55
f 152/30/56 155/33/56 161/33/56 158/30/56
f 154/34/56 152/30/56 158/30/56 160/34/56
f 106/22/57 162/28/57 163/28/57 164/39/57 112/22/57
